<?xml version="1.0" encoding="UTF-8" standalone="no"?>
<svg width="130px" height="40px" viewBox="0 0 130 40" version="1.1" xmlns="http://www.w3.org/2000/svg" xmlns:xlink="http://www.w3.org/1999/xlink" xmlns:sketch="http://www.bohemiancoding.com/sketch/ns">
    <!-- Generator: Sketch 3.3.3 (12081) - http://www.bohemiancoding.com/sketch -->
    <title>Isle&amp;DineLogo</title>
    <desc>Created with Sketch.</desc>
    <defs></defs>
    <g id="Page-1" stroke="none" stroke-width="1" fill="none" fill-rule="evenodd" sketch:type="MSPage">
        <g id="Isle&amp;DineLogo" sketch:type="MSLayerGroup" fill="#FFFFFF">
            <path d="M63.473913,8.08933002 L64.3486957,1.72618405 L62.3930435,4.28309418 L60.4347826,6.83870968 L61.9556522,7.46358831 L63.473913,8.08933002" id="Fill-301" sketch:type="MSShapeGroup"></path>
            <path d="M67.5413043,11.5870105 L69.1743478,8.81475887 L70.806087,6.04164419 L68.0113043,7.65994174 L65.2173913,9.27910238 L67.5413043,11.5870105" id="Fill-302" sketch:type="MSShapeGroup"></path>
            <path d="M69.3252174,14.8922214 L69.9526087,16.3996116 L72.5317391,14.4580861 L75.1078261,12.5148344 L71.9017391,12.9511274 L68.6956522,13.3848312 L69.3252174,14.8922214" id="Fill-303" sketch:type="MSShapeGroup"></path>
            <path d="M70.4347826,18.5564786 L70.4347826,21.8215557 L73.5656522,21.0046391 L76.6947826,20.1885856 L73.5656522,19.3721006 L70.4347826,18.5564786" id="Fill-304" sketch:type="MSShapeGroup"></path>
            <path d="M69.9547826,23.7350307 L69.326087,25.2428525 L68.6956522,26.7502427 L71.9017391,27.1856727 L75.1069565,27.619808 L72.5321739,25.6774194 L69.9547826,23.7350307" id="Fill-305" sketch:type="MSShapeGroup"></path>
            <path d="M67.543913,28.4820369 L66.38,29.6355594 L65.2173913,30.7895134 L68.0108696,32.4104003 L70.8065217,34.0295609 L69.173913,31.2551516 L67.543913,28.4820369" id="Fill-306" sketch:type="MSShapeGroup"></path>
            <path d="M63.4726087,31.934405 L61.9526087,32.5584205 L60.4347826,33.1820045 L62.3913043,35.7402093 L64.3478261,38.2962563 L63.4726087,31.934405" id="Fill-307" sketch:type="MSShapeGroup"></path>
            <path d="M54.7826087,33.6605891 L56.426087,39.8744201 L57.2478261,36.7668573 L58.0708696,33.6605891 L54.7826087,33.6605891" id="Fill-308" sketch:type="MSShapeGroup"></path>
            <path d="M50.0047826,31.934405 L49.1304348,38.2979825 L53.0443478,33.1837307 L51.523913,32.5601467 L50.0047826,31.934405" id="Fill-309" sketch:type="MSShapeGroup"></path>
            <path d="M45.8713043,28.4820369 L44.24,31.2542885 L42.6086957,34.0291294 L45.4034783,32.4091056 L48.1973913,30.7903765 L47.0343478,29.636854 L45.8713043,28.4820369" id="Fill-310" sketch:type="MSShapeGroup"></path>
            <path d="M44.0443478,25.2419894 L43.416087,23.7350307 L40.8386957,25.6761247 L38.2608696,27.619808 L41.4669565,27.1839465 L44.6734783,26.7511058 L44.0443478,25.2419894" id="Fill-311" sketch:type="MSShapeGroup"></path>
            <path d="M42.7817391,21.3900097 L42.7817391,18.1249326 L39.6517391,18.9405545 L36.5217391,19.756608 L39.6517391,20.5726616 L42.7817391,21.3900097" id="Fill-312" sketch:type="MSShapeGroup"></path>
            <path d="M43.4143478,15.9680656 L44.0426087,14.4593807 L44.6730435,12.9528536 L41.4673913,12.5178552 L38.2608696,12.0832884 L43.4143478,15.9680656" id="Fill-313" sketch:type="MSShapeGroup"></path>
            <path d="M45.8717391,11.1554645 L47.033913,10.0015104 L48.1973913,8.84885101 L45.4026087,7.22882727 L42.6086957,5.61009818 L45.8717391,11.1554645" id="Fill-314" sketch:type="MSShapeGroup"></path>
            <path d="M50.006087,8.08976157 L51.5269565,7.46617758 L53.0456522,6.83957277 L51.0873913,4.28395728 L49.1304348,1.72618405 L50.006087,8.08976157" id="Fill-315" sketch:type="MSShapeGroup"></path>
            <path d="M58.5082609,6.2133995 L57.6847826,3.10583666 L56.8634783,0 L56.0417391,3.10583666 L55.2173913,6.2133995 L58.5082609,6.2133995" id="Fill-316" sketch:type="MSShapeGroup"></path>
            <path d="M54.4765217,19.4195706 C54.0986957,19.6202395 53.4782609,20.1156543 53.4782609,21.1595641 C53.4782609,22.2306613 54.2878261,23.0070126 55.6091304,23.0070126 C56.3913043,23.0070126 57.0121739,22.7791563 57.483913,22.4313302 C56.4991304,21.7753803 55.016087,20.2761894 54.4765217,19.4195706" id="Fill-317" sketch:type="MSShapeGroup"></path>
            <path d="M59.9113043,26.3113604 C58.9026087,26.832668 57.7530435,27.1278455 56.536087,27.1278455 C56.3456522,27.1278455 56.1569565,27.1200777 55.9682609,27.1066998 C56.1595652,27.0790808 56.3491304,27.0445571 56.536087,27.0022656 C57.736087,26.7398856 58.8886957,26.2047686 59.9113043,25.4758874 C61.9182609,24.0453123 63.4308696,21.861258 63.8426087,19.4756716 C63.8508696,19.6042723 63.8547826,19.7341677 63.8547826,19.8649261 C63.8547826,22.6678175 62.2547826,25.0995792 59.9113043,26.3113604 L59.9113043,26.3113604 Z M52.2213043,21.0810228 C52.2213043,19.4618621 53.3134783,18.631136 53.7991304,18.3635775 C53.5430435,17.9354839 53.2869565,17.3192362 53.2869565,16.5830187 C53.2869565,15.043694 54.2852174,14.1603193 55.7547826,14.1603193 C57.1847826,14.1603193 57.8986957,15.0303161 57.8986957,15.981012 C57.8986957,17.0249218 57.2391304,17.734815 56.4965217,18.001942 C56.1995652,17.988564 55.9165217,17.4940123 56.0252174,17.1457547 C56.4565217,16.9852195 56.7934783,16.6365304 56.7934783,16.1014133 C56.7934783,15.592189 56.4426087,15.0976373 55.6743478,15.0976373 C54.9456522,15.0976373 54.406087,15.6327543 54.406087,16.4755637 C54.406087,17.533283 55.2556522,18.7118351 55.9434783,19.488618 C56.5778261,20.2248355 57.6565217,21.1215881 58.1686957,21.4694142 C58.6143478,20.9606214 58.8569565,20.1847017 58.8569565,19.3673535 C58.8569565,19.2335743 58.8430435,19.0592297 58.816087,18.9522063 C58.8973913,18.8451829 59.1404348,18.7519689 59.3834783,18.7519689 C59.6256522,18.7519689 59.8147826,18.8188586 59.9091304,18.9522063 C59.936087,19.0462833 59.9491304,19.2469522 59.9491304,19.3673535 C59.9491304,20.4919625 59.5721739,21.4292804 59.086087,22.0450966 C59.5043478,22.2858992 60.353913,22.6203474 60.8534783,22.7541267 C60.92,22.8352573 60.9473913,22.9815514 60.9473913,23.1161938 C60.9473913,23.3837523 60.7991304,23.6780667 60.4886957,23.7453879 C59.9091304,23.624555 58.83,23.1697055 58.2773913,22.8352573 C57.5486957,23.3971302 56.6586957,23.7315784 55.3369565,23.7315784 C53.2465217,23.7315784 52.2213043,22.5940231 52.2213043,21.0810228 L52.2213043,21.0810228 Z M49.2308696,20.2546121 C49.2230435,20.1260114 49.2191304,19.9956845 49.2191304,19.8649261 C49.2191304,17.0624663 50.82,14.631136 53.1621739,13.4197864 C54.1726087,12.8967526 55.3191304,12.6020067 56.536087,12.6020067 C56.7286957,12.6020067 56.9169565,12.6102061 57.1056522,12.623584 C56.9152174,12.6516345 56.7247826,12.6870213 56.536087,12.7284497 C55.3369565,12.9912612 54.1852174,13.523789 53.1621739,14.2548279 C51.156087,15.6845399 49.6434783,17.8690258 49.2308696,20.2546121 L49.2308696,20.2546121 Z M59.9113043,9.13841838 C58.8456522,8.80871723 57.7126087,8.63092027 56.536087,8.63092027 C55.3617391,8.63092027 54.2282609,8.81001187 53.1621739,9.13841838 C48.5586957,10.5638149 45.2173913,14.8270579 45.2173913,19.8649261 C45.2173913,24.9032258 48.5586957,29.167332 53.1621739,30.5918654 C54.2282609,30.9215665 55.3617391,31.1015212 56.536087,31.1015212 C57.7126087,31.1015212 58.8456522,30.9215665 59.9113043,30.5918654 C64.513913,29.167332 67.8556522,24.9040889 67.8556522,19.8649261 C67.8556522,14.8270579 64.513913,10.5638149 59.9113043,9.13841838 L59.9113043,9.13841838 Z" id="Fill-318" sketch:type="MSShapeGroup"></path>
            <path d="M82.5857894,26.3152444 C83.342746,26.363146 85.2710068,26.5090085 86.4914416,26.5090085 C90.5436155,26.5090085 93.1797025,23.8679469 93.1797025,19.5063114 C93.1797025,14.8059122 90.0553547,12.9161722 84.6605721,12.9161722 C83.8062242,12.9161722 82.9275286,12.9640738 82.5857894,13.0128385 L82.5857894,26.3152444 L82.5857894,26.3152444 Z M78.4362242,11.995253 C79.3388329,11.6806559 81.4136155,11.2201964 84.9049199,11.2201964 C91.4470938,11.2201964 95.2549199,13.4974647 95.2549199,19.3850469 C95.2549199,24.1342108 92.5701373,28.1803862 86.4675286,28.1803862 C84.9049199,28.1803862 82.6588329,27.9870536 81.5605721,27.9870536 C80.6083981,27.9870536 79.4118764,28.0599849 78.7040503,28.1803862 C78.2897025,27.9870536 78.0940503,26.9932032 78.4362242,26.6061064 C78.8749199,26.4365088 80.0957894,26.3152444 80.5592677,26.3152444 L80.5592677,13.2307692 C80.1688329,13.2795339 79.1931808,13.4732981 78.8262242,13.5945625 C78.386659,13.4487 78.1670938,12.431546 78.4362242,11.995253 L78.4362242,11.995253 Z" id="Fill-319" sketch:type="MSShapeGroup"></path>
            <path d="M111.465652,16.8302945 C114.858261,16.8302945 115.468696,19.0842594 115.468696,21.7973891 L115.468696,26.1836228 C115.468696,26.3040242 115.517391,26.3769554 115.64,26.3769554 L117.104783,26.3769554 C117.323913,26.4498867 117.446087,26.8128169 117.446087,27.1520121 C117.446087,27.4916388 117.323913,27.8550005 117.104783,27.9275003 L111.978261,27.9275003 C111.757826,27.8550005 111.612174,27.4916388 111.612174,27.1520121 C111.612174,26.8128169 111.757826,26.4498867 111.978261,26.3769554 L113.36913,26.3769554 C113.540435,26.3769554 113.564783,26.3040242 113.564783,26.1836228 L113.564783,21.9911533 C113.564783,19.713885 112.905652,18.5025353 110.977391,18.5025353 C109.170435,18.5025353 107.778696,19.7626497 107.291304,20.9494012 C106.998261,21.5552918 106.900435,22.0640846 106.900435,22.7666415 L106.900435,26.1836228 C106.900435,26.3040242 106.948696,26.3769554 107.071304,26.3769554 L108.535652,26.3769554 C108.731304,26.4498867 108.877826,26.8128169 108.877826,27.1520121 C108.877826,27.4916388 108.756087,27.8550005 108.535652,27.9275003 L103.409565,27.9275003 C103.166087,27.8550005 103.043478,27.4916388 103.043478,27.1520121 C103.043478,26.8128169 103.19,26.4498867 103.409565,26.3769554 L104.801304,26.3769554 C104.946957,26.3769554 104.996087,26.3040242 104.996087,26.1836228 L104.996087,19.1567591 C104.996087,18.841299 104.89913,18.7446326 104.605652,18.7446326 L103.336522,18.7446326 C103.19,18.6721329 103.043478,18.3329377 103.043478,17.969576 C103.043478,17.6303808 103.166087,17.3153522 103.360435,17.2182544 L106.387826,17.0240587 C106.729565,17.0003237 106.900435,17.0974215 106.900435,17.533283 L106.900435,19.132161 L106.998261,19.1567591 C107.608261,18.1875067 108.95087,16.8302945 111.465652,16.8302945" id="Fill-320" sketch:type="MSShapeGroup"></path>
            <path d="M126.165652,20.9739994 C126.556522,20.9010681 126.629565,20.8523034 126.629565,20.6831373 C126.629565,19.6897184 125.726087,18.4546337 124.042174,18.4546337 C122.406522,18.4546337 120.916957,19.5688855 120.697826,21.5794584 C122.137391,21.5311253 125.066957,21.2160967 126.165652,20.9739994 L126.165652,20.9739994 Z M124.725652,26.6194843 C126.458696,26.6194843 127.703478,26.0377603 128.094348,25.8439961 C128.362609,25.819398 128.63087,26.0623584 128.777826,26.4257201 C128.923913,26.8128169 128.874783,27.2003452 128.728696,27.3462078 C128.216522,27.6366383 126.873913,28.2917251 124.627826,28.2917251 C121.21,28.2917251 118.695652,26.3769554 118.695652,22.6695436 C118.695652,18.9629949 121.307391,16.8302945 124.139565,16.8302945 C127.434348,16.8302945 128.802609,19.3505232 128.802609,21.7494875 C128.802609,21.9911533 128.728696,22.0640846 128.167391,22.1849175 C126.336522,22.5482792 122.576957,22.9604057 120.673478,23.0329054 C120.81913,25.3593699 122.601739,26.6194843 124.725652,26.6194843 L124.725652,26.6194843 Z" id="Fill-321" sketch:type="MSShapeGroup"></path>
            <path d="M98.5747826,9.92555831 C99.7665217,9.92555831 100.834783,11.8295393 100.834783,13.7115115 C100.834783,15.1710001 100.848261,15.8528428 100.086087,16.5894919 C99.8447826,16.8229582 99.5847826,17.0594455 99.3486957,17.2402632 C99.2478261,17.3718848 99.1469565,17.5596073 99.1369565,17.795663 L99.063913,20.0690474 L99.5578261,30.3989643 L99.5591304,30.4063006 C99.5591304,30.5262704 99.1965217,30.6242313 98.7473913,30.6242313 C98.2991304,30.6242313 97.9347826,30.5262704 97.9347826,30.4063006 L97.936087,30.3998274 L98.3217391,20.0336606 L98.3413043,17.7935052 C98.3413043,17.7935052 98.3643478,17.5561549 98.1273913,17.2402632 C97.9143478,17.0870644 97.5934783,16.9226454 97.403913,16.6632862 C96.9834783,16.0897616 96.5217391,15.0782177 96.5217391,13.7115115 C96.5217391,11.8295393 97.3843478,9.92555831 98.5747826,9.92555831" id="Fill-322" sketch:type="MSShapeGroup"></path>
            <path d="M2.09956522,13.0853382 C2.09956522,12.9645053 2.05086957,12.9161722 1.92826087,12.9161722 L0.34173913,12.9161722 C0.146521739,12.8436725 0,12.4557126 0,12.0681843 C0,11.704391 0.122173913,11.2926961 0.34173913,11.2201964 L5.85869565,11.2201964 C6.07826087,11.2926961 6.22478261,11.704391 6.22478261,12.0681843 C6.22478261,12.4557126 6.07826087,12.8436725 5.85869565,12.9161722 L4.32086957,12.9161722 C4.14956522,12.9161722 4.12565217,12.9645053 4.12565217,13.0853382 L4.12565217,25.9518826 C4.12565217,26.073147 4.17434783,26.1456468 4.32086957,26.1456468 L5.88304348,26.1456468 C6.10304348,26.2181465 6.22478261,26.5815083 6.22478261,26.9690366 C6.22478261,27.3323983 6.10304348,27.7445248 5.88304348,27.8170245 L0.366086957,27.8170245 C0.146521739,27.7445248 0,27.3323983 0,26.9690366 C0,26.5815083 0.146521739,26.2181465 0.366086957,26.1456468 L1.92826087,26.1456468 C2.07478261,26.1456468 2.09956522,26.073147 2.09956522,25.9518826 L2.09956522,13.0853382" id="Fill-323" sketch:type="MSShapeGroup"></path>
            <path d="M15.3113043,19.0113281 C15.1891304,18.5508685 14.7986957,18.2608696 13.553913,18.2608696 C11.9669565,18.2608696 10.9417391,18.7929658 10.9417391,19.7863847 C10.9417391,20.8285683 11.6252174,21.0706657 13.8713043,21.5794584 C15.9213043,22.0157514 17.5817391,22.5241126 17.5817391,24.6563815 C17.5817391,27.2249434 15.2621739,28.2917251 12.6017391,28.2917251 C10.8195652,28.2917251 9.79434783,27.8795987 9.33043478,27.5887366 C8.84217391,27.2249434 8.69565217,26.7403172 8.69565217,25.9652605 C8.69565217,25.2622721 8.79347826,24.5597152 8.86695652,24.1238537 C9.03782609,23.9538246 9.33043478,23.8813248 9.72130435,23.8813248 C10.136087,23.9054914 10.5269565,24.075089 10.6482609,24.2934513 C10.6,24.5355486 10.5269565,25.1414392 10.5269565,25.5777322 C10.5269565,26.0623584 10.6,26.2561226 10.9417391,26.4498867 C11.2343478,26.6194843 11.8691304,26.8615816 12.7726087,26.8615816 C14.6278261,26.8615816 15.6043478,26.0623584 15.6043478,24.9718416 C15.6043478,23.929658 14.8473913,23.5904628 12.6991304,23.1304348 C10.6,22.6453771 8.98913043,22.1849175 8.98913043,20.1014133 C8.98913043,17.8720466 11.1856522,16.8302945 13.8713043,16.8302945 C15.9704348,16.8302945 16.7273913,17.2670191 16.9469565,17.7028806 C17.1665217,18.1633402 17.1665217,19.6655518 17.0934783,20.0772467 C16.9713043,20.2710109 16.6782609,20.4401769 16.2143478,20.4401769 C15.7752174,20.4401769 15.4573913,20.2710109 15.3113043,20.1014133 C15.3356522,19.8834826 15.3843478,19.3017586 15.3113043,19.0113281" id="Fill-324" sketch:type="MSShapeGroup"></path>
            <path d="M31.8182609,20.9739994 C32.2086957,20.9010681 32.2817391,20.8523034 32.2817391,20.6831373 C32.2817391,19.6897184 31.3782609,18.4546337 29.6943478,18.4546337 C28.0586957,18.4546337 26.5695652,19.5688855 26.3495652,21.5794584 C27.7904348,21.5311253 30.7195652,21.2160967 31.8182609,20.9739994 L31.8182609,20.9739994 Z M30.3778261,26.6194843 C32.1108696,26.6194843 33.3556522,26.0377603 33.746087,25.8439961 C34.0147826,25.819398 34.283913,26.0623584 34.43,26.4257201 C34.5765217,26.8128169 34.5278261,27.2003452 34.3808696,27.3462078 C33.8686957,27.6366383 32.526087,28.2917251 30.28,28.2917251 C26.8621739,28.2917251 24.3478261,26.3769554 24.3478261,22.6695436 C24.3478261,18.9629949 26.96,16.8302945 29.7921739,16.8302945 C33.0878261,16.8302945 34.4543478,19.3505232 34.4543478,21.7494875 C34.4543478,21.9911533 34.3808696,22.0640846 33.82,22.1849175 C31.9886957,22.5482792 28.2295652,22.9604057 26.3252174,23.0329054 C26.4717391,25.3593699 28.253913,26.6194843 30.3778261,26.6194843 L30.3778261,26.6194843 Z" id="Fill-325" sketch:type="MSShapeGroup"></path>
            <path d="M21.5067682,10.3440028 L21.4745943,14.4907285 L21.4737248,14.4915916 C21.47329,14.5727222 21.407203,14.6383172 21.3250291,14.6383172 C21.2467682,14.6383172 21.1837248,14.5791954 21.1767682,14.5041064 L21.1750291,14.5010856 L21.1002465,10.3440028 C21.1163335,10.0073969 20.9267682,9.93834959 20.9267682,9.93834959 C20.7302465,10.0073969 20.7358987,10.3543599 20.7358987,10.3543599 L20.5750291,14.5123058 L20.5724204,14.518779 L20.5728552,14.5192105 C20.5728552,14.561502 20.5506813,14.5960257 20.5180726,14.6180346 L20.467203,14.636591 L20.4554639,14.6391803 C20.3906813,14.6391803 20.3376378,14.5861002 20.3376378,14.5192105 L20.3393769,14.5097165 L20.4467682,10.3327826 C20.3093769,9.58318722 20.0854639,10.3142262 20.0854639,10.3142262 L19.8815508,12.277329 L19.5893769,15.3835972 C19.5741595,15.5441323 19.55329,15.7482536 19.5737248,15.9377023 C19.5867682,16.0576721 19.6163335,16.1716002 19.6750291,16.2648141 C19.7741595,16.42276 19.9324204,16.478861 20.0711161,16.5854528 L20.4463335,16.8728625 C20.7893769,17.1382633 20.7358987,17.4468187 20.7358987,17.4468187 L20.3219856,30.3957884 L20.3206813,30.4022615 C20.3206813,30.5243891 20.6911161,30.6232131 21.1480726,30.6232131 C21.6050291,30.6232131 21.9754639,30.5243891 21.9754639,30.4022615 L21.97329,30.3910414 L21.6785074,17.4355985 C21.7463335,16.9751389 22.1419856,16.7740384 22.1419856,16.7740384 L22.3854639,16.6173872 C22.8137248,16.3938464 22.8424204,15.9886247 22.8424204,15.9886247 C22.8424204,15.803923 22.8554639,15.6084327 22.8567682,15.4202786 C22.8589421,15.0823781 22.8298117,14.7479299 22.8093769,14.4108925 C22.7841595,14.0004922 22.757203,13.5905235 22.7289421,13.1805548 C22.6976378,12.7386517 22.6711161,12.296317 22.6428552,11.8539823 C22.6206813,11.4983884 22.5976378,11.1427945 22.5750291,10.7880637 C22.5658987,10.6439273 22.5563335,10.4997909 22.547203,10.3556546 C22.3015508,9.56937774 22.1602465,10.3755057 22.1602465,10.3755057 L22.2458987,14.5123058 L22.2441595,14.5136004 C22.2385074,14.5873948 22.177203,14.6447904 22.1019856,14.6447904 C22.0228552,14.6447904 21.9580726,14.5813531 21.9580726,14.5023802 L21.9585074,14.4976332 L21.957203,14.4907285 L21.8819856,10.3651486 C21.6702465,9.38855996 21.5067682,10.3440028 21.5067682,10.3440028" id="Fill-326" sketch:type="MSShapeGroup"></path>
            <path d="M76.7978261,32.8592081 L76.5317391,32.8397885 L76.5317391,32.365951 L77.9582609,32.365951 L77.9582609,32.8255475 L77.7665217,32.8449671 C77.6778261,32.8544611 77.6434783,32.8833747 77.6434783,32.9964397 L77.6434783,35.0613874 L78.2386957,35.0613874 C78.3321739,35.0566404 78.3665217,35.0320423 78.3665217,34.9297659 L78.3665217,34.6022225 L78.9865217,34.6462402 L78.9865217,35.6133348 L76.5217391,35.6133348 L76.5217391,35.1446758 L76.6791304,35.1295717 C76.7730435,35.1200777 76.7978261,35.0911641 76.7978261,34.973352 L76.7978261,32.8592081" id="Fill-327" sketch:type="MSShapeGroup"></path>
            <path d="M79.7552174,31.934405 C80.0404348,31.934405 80.2373913,32.1005502 80.2373913,32.3495523 C80.2373913,32.6080483 80.0404348,32.7884346 79.7552174,32.7884346 C79.4647826,32.7884346 79.2826087,32.6080483 79.2826087,32.3642248 C79.2826087,32.1247168 79.47,31.934405 79.7552174,31.934405 L79.7552174,31.934405 Z M80.2273913,35.0937534 L80.4878261,35.1131729 L80.4878261,35.5671593 L79.1304348,35.5671593 L79.1304348,35.127414 L79.3026087,35.1131729 C79.396087,35.1028158 79.4156522,35.0739023 79.4156522,34.9517747 L79.4156522,33.6920919 C79.4156522,33.5898155 79.386087,33.5552918 79.2973913,33.5453663 L79.1304348,33.5311253 L79.1304348,33.0715288 L80.2273913,33.0715288 L80.2273913,35.0937534 L80.2273913,35.0937534 Z" id="Fill-328" sketch:type="MSShapeGroup"></path>
            <path d="M80.4347826,32.9739994 L80.7595652,32.9739994 L80.7595652,32.8574819 C80.7595652,32.3741504 80.9073913,31.934405 81.65,31.934405 C81.93,31.934405 82.24,32.0125148 82.4465217,32.1199698 L82.2595652,32.6326465 C82.1026087,32.5592836 81.9547826,32.5299385 81.856087,32.5299385 C81.6843478,32.5299385 81.5813043,32.6084799 81.5813043,32.8376308 L81.5813043,32.9739994 L82.2056522,32.9739994 L82.2056522,33.5017801 L81.5813043,33.5017801 L81.5813043,34.9910454 L81.9647826,35.0156435 L81.9647826,35.4696299 L80.483913,35.4696299 L80.483913,35.0298846 L80.6413043,35.0156435 C80.7347826,35.0052864 80.7595652,34.9763729 80.7595652,34.8542453 L80.7595652,33.5017801 L80.4347826,33.5017801 L80.4347826,32.9739994" id="Fill-329" sketch:type="MSShapeGroup"></path>
            <path d="M83.8534783,33.3792211 C83.5973913,33.3792211 83.4304348,33.608372 83.4156522,33.9255583 C83.8582609,33.9406624 84.0652174,33.8232819 84.0652174,33.5889524 C84.0652174,33.4374798 83.9765217,33.3792211 83.8534783,33.3792211 L83.8534783,33.3792211 Z M84.7682609,33.5449347 C84.7682609,34.2379976 84.1682609,34.4140684 83.4252174,34.4041428 C83.45,34.6332938 83.5973913,34.8192901 83.9173913,34.8192901 C84.1682609,34.8192901 84.3843478,34.7265077 84.5421739,34.6242313 L84.7586957,35.1658216 C84.733913,35.1904197 84.36,35.4247492 83.803913,35.4247492 C82.9434783,35.4247492 82.6086957,34.8926529 82.6086957,34.1698134 C82.6086957,33.4374798 83.0465217,32.797497 83.8973913,32.797497 C84.4143478,32.797497 84.7682609,33.0322581 84.7682609,33.5449347 L84.7682609,33.5449347 Z" id="Fill-330" sketch:type="MSShapeGroup"></path>
            <path d="M85.7156522,33.0011868 C86.0795652,32.9174668 86.2521739,32.6688963 86.3556522,32.365951 L86.8078261,32.365951 L86.8078261,32.9368864 L87.3834783,32.9368864 L87.3443478,33.4741612 L86.8078261,33.4741612 L86.8078261,34.5241126 C86.8078261,34.7925343 86.8569565,34.8706441 87.0886957,34.8706441 C87.206087,34.8706441 87.3143478,34.841299 87.3934783,34.7977128 L87.5065217,35.3440501 C87.3686957,35.42777 87.1226087,35.4959543 86.8473913,35.4959543 C85.9913043,35.4959543 85.9813043,35.0562089 85.9813043,34.6069695 L85.9813043,33.4741612 L85.6521739,33.4741612 L85.7156522,33.0011868" id="Fill-331" sketch:type="MSShapeGroup"></path>
            <path d="M89.3217391,33.4180602 C89.2673913,33.3934621 89.183913,33.3792211 89.0956522,33.3792211 C88.7413043,33.3792211 88.6478261,33.7546661 88.6478261,34.1646348 C88.6478261,34.5357644 88.7165217,34.8434567 89.0117391,34.8434567 C89.2134783,34.8434567 89.3217391,34.7066566 89.3217391,34.5556155 L89.3217391,33.4180602 L89.3217391,33.4180602 Z M90.1330435,34.7657784 C90.1330435,34.8680548 90.1578261,34.9021469 90.2465217,34.9073255 L90.3743478,34.916388 L90.3743478,35.3613119 L89.4891304,35.3613119 L89.4543478,35.1312979 L89.4395652,35.1269824 C89.3165217,35.3121157 89.0956522,35.4247492 88.81,35.4247492 C88.0626087,35.4247492 87.826087,34.8728018 87.826087,34.2237566 C87.826087,33.3641169 88.273913,32.797497 89.183913,32.797497 C89.3613043,32.797497 89.7395652,32.8320207 90.1330435,32.9834934 L90.1330435,34.7657784 L90.1330435,34.7657784 Z" id="Fill-332" sketch:type="MSShapeGroup"></path>
            <path d="M91.5313043,33.3347718 C91.3543478,33.3347718 91.246087,33.4128816 91.246087,33.5401877 C91.246087,33.7153954 91.4530435,33.7641601 91.6986957,33.8375229 C92.0430435,33.9354839 92.4413043,34.0576114 92.4413043,34.5651095 C92.4413043,35.1071313 92.0086957,35.4247492 91.3395652,35.4247492 C91.0595652,35.4247492 90.6704348,35.3708059 90.4347826,35.2586039 L90.4347826,34.5849606 L90.9856522,34.5456899 L90.9856522,34.7312547 C90.9856522,34.794692 90.9952174,34.8339627 91.0543478,34.8533822 C91.1082609,34.8728018 91.1969565,34.8879059 91.2956522,34.8879059 C91.4873913,34.8879059 91.6104348,34.8236056 91.6104348,34.6578919 C91.6104348,34.4869997 91.4186957,34.447729 91.1626087,34.3899018 C90.8182609,34.3014349 90.4443478,34.1749919 90.4443478,33.6424641 C90.4443478,33.1004423 90.8973913,32.797497 91.5365217,32.797497 C91.7969565,32.797497 92.1021739,32.8514403 92.3526087,32.9735678 L92.3526087,33.6277916 L91.8021739,33.6670623 L91.8021739,33.491423 C91.8021739,33.4180602 91.7921739,33.3839681 91.7378261,33.3641169 C91.6691304,33.3395188 91.6052174,33.3347718 91.5313043,33.3347718" id="Fill-333" sketch:type="MSShapeGroup"></path>
            <path d="M92.6730435,33.0011868 C93.0369565,32.9174668 93.2086957,32.6688963 93.3121739,32.365951 L93.7643478,32.365951 L93.7643478,32.9368864 L94.3404348,32.9368864 L94.3008696,33.4741612 L93.7643478,33.4741612 L93.7643478,34.5241126 C93.7643478,34.7925343 93.813913,34.8706441 94.0447826,34.8706441 C94.1630435,34.8706441 94.2713043,34.841299 94.35,34.7977128 L94.4634783,35.3440501 C94.3252174,35.42777 94.0791304,35.4959543 93.803913,35.4959543 C92.9478261,35.4959543 92.9382609,35.0562089 92.9382609,34.6069695 L92.9382609,33.4741612 L92.6086957,33.4741612 L92.6730435,33.0011868" id="Fill-334" sketch:type="MSShapeGroup"></path>
            <path d="M96.0273913,33.3792211 C95.7717391,33.3792211 95.6043478,33.608372 95.5895652,33.9255583 C96.0321739,33.9406624 96.2391304,33.8232819 96.2391304,33.5889524 C96.2391304,33.4374798 96.1504348,33.3792211 96.0273913,33.3792211 L96.0273913,33.3792211 Z M96.9426087,33.5449347 C96.9426087,34.2379976 96.3421739,34.4140684 95.5995652,34.4041428 C95.6243478,34.6332938 95.7717391,34.8192901 96.0913043,34.8192901 C96.3421739,34.8192901 96.5582609,34.7265077 96.716087,34.6242313 L96.9326087,35.1658216 C96.9082609,35.1904197 96.533913,35.4247492 95.9778261,35.4247492 C95.1173913,35.4247492 94.7826087,34.8926529 94.7826087,34.1698134 C94.7826087,33.4374798 95.2204348,32.797497 96.0717391,32.797497 C96.5882609,32.797497 96.9426087,33.0322581 96.9426087,33.5449347 L96.9426087,33.5449347 Z" id="Fill-335" sketch:type="MSShapeGroup"></path>
            <path d="M98.0530435,33.3347718 C97.876087,33.3347718 97.7678261,33.4128816 97.7678261,33.5401877 C97.7678261,33.7153954 97.9747826,33.7641601 98.2204348,33.8375229 C98.5647826,33.9354839 98.9634783,34.0576114 98.9634783,34.5651095 C98.9634783,35.1071313 98.5304348,35.4247492 97.8613043,35.4247492 C97.5808696,35.4247492 97.1921739,35.3708059 96.9565217,35.2586039 L96.9565217,34.5849606 L97.5069565,34.5456899 L97.5069565,34.7312547 C97.5069565,34.794692 97.5169565,34.8339627 97.5765217,34.8533822 C97.6304348,34.8728018 97.7186957,34.8879059 97.8169565,34.8879059 C98.0091304,34.8879059 98.1321739,34.8236056 98.1321739,34.6578919 C98.1321739,34.4869997 97.9404348,34.447729 97.6847826,34.3899018 C97.34,34.3014349 96.966087,34.1749919 96.966087,33.6424641 C96.966087,33.1004423 97.4186957,32.797497 98.0582609,32.797497 C98.3191304,32.797497 98.623913,32.8514403 98.8747826,32.9735678 L98.8747826,33.6277916 L98.323913,33.6670623 L98.323913,33.491423 C98.323913,33.4180602 98.313913,33.3839681 98.26,33.3641169 C98.1913043,33.3395188 98.1269565,33.3347718 98.0530435,33.3347718" id="Fill-336" sketch:type="MSShapeGroup"></path>
            <path d="M101.106957,34.8494983 C101.18087,34.8835905 101.274348,34.898263 101.357826,34.898263 C101.653043,34.898263 101.78087,34.6440824 101.78087,34.1611824 C101.78087,33.7313626 101.687391,33.4430899 101.377391,33.4430899 C101.220435,33.4430899 101.106957,33.5462294 101.106957,33.6925235 L101.106957,34.8494983 L101.106957,34.8494983 Z M101.106957,33.0723918 C101.234783,32.9403388 101.446087,32.8523034 101.682174,32.8523034 C102.248261,32.8523034 102.602609,33.2432841 102.602609,34.0442335 C102.602609,35.010465 102.12,35.4795555 101.31913,35.4795555 C100.944348,35.4795555 100.502174,35.3867731 100.285652,35.2741396 L100.285652,32.5497896 C100.285652,32.4570072 100.246087,32.4134211 100.167391,32.4082425 L100,32.3940015 L100,31.934405 L101.106957,31.934405 L101.106957,33.0723918 L101.106957,33.0723918 Z" id="Fill-337" sketch:type="MSShapeGroup"></path>
            <path d="M104.288261,33.3792211 C104.032609,33.3792211 103.865217,33.608372 103.850435,33.9255583 C104.293043,33.9406624 104.5,33.8232819 104.5,33.5889524 C104.5,33.4374798 104.411304,33.3792211 104.288261,33.3792211 L104.288261,33.3792211 Z M105.203043,33.5449347 C105.203043,34.2379976 104.603043,34.4140684 103.860435,34.4041428 C103.885217,34.6332938 104.032609,34.8192901 104.352174,34.8192901 C104.603043,34.8192901 104.81913,34.7265077 104.976957,34.6242313 L105.193478,35.1658216 C105.16913,35.1904197 104.794783,35.4247492 104.238696,35.4247492 C103.378261,35.4247492 103.043478,34.8926529 103.043478,34.1698134 C103.043478,33.4374798 103.481304,32.797497 104.332609,32.797497 C104.84913,32.797497 105.203043,33.0322581 105.203043,33.5449347 L105.203043,33.5449347 Z" id="Fill-338" sketch:type="MSShapeGroup"></path>
            <path d="M106.373478,32.9368864 L107.052174,32.9368864 C107.293478,32.825116 107.426087,32.6149531 107.509565,32.365951 L107.962174,32.365951 L107.962174,32.9368864 L108.537826,32.9368864 L108.498696,33.4741612 L107.962174,33.4741612 L107.962174,34.5241126 C107.962174,34.7925343 108.011304,34.8706441 108.242609,34.8706441 C108.360435,34.8706441 108.468696,34.841299 108.547826,34.7977128 L108.66087,35.3440501 C108.523043,35.42777 108.276957,35.4959543 108.001304,35.4959543 C107.145652,35.4959543 107.136087,35.0562089 107.136087,34.6069695 L107.136087,33.4741612 L106.373478,33.4741612 L106.373478,34.5241126 C106.373478,34.729097 106.412609,34.8805696 106.61913,34.8805696 C106.703043,34.8805696 106.796522,34.8564031 106.89,34.8123854 L107.027391,35.3393031 C106.904783,35.4079189 106.693043,35.4959543 106.397826,35.4959543 C105.748696,35.4959543 105.546957,35.1688424 105.546957,34.6220736 L105.546957,33.4741612 L105.217391,33.4741612 L105.281304,33.0011868 C105.645217,32.9174668 105.817391,32.6688963 105.92087,32.365951 L106.373478,32.365951 L106.373478,32.9368864" id="Fill-339" sketch:type="MSShapeGroup"></path>
            <path d="M110.375217,33.3792211 C110.119565,33.3792211 109.952174,33.608372 109.937391,33.9255583 C110.38,33.9406624 110.586957,33.8232819 110.586957,33.5889524 C110.586957,33.4374798 110.498261,33.3792211 110.375217,33.3792211 L110.375217,33.3792211 Z M111.290435,33.5449347 C111.290435,34.2379976 110.69,34.4140684 109.947391,34.4041428 C109.972174,34.6332938 110.119565,34.8192901 110.43913,34.8192901 C110.69,34.8192901 110.906087,34.7265077 111.063913,34.6242313 L111.280435,35.1658216 C111.256087,35.1904197 110.882174,35.4247492 110.325652,35.4247492 C109.465217,35.4247492 109.130435,34.8926529 109.130435,34.1698134 C109.130435,33.4374798 109.568696,32.797497 110.419565,32.797497 C110.936087,32.797497 111.290435,33.0322581 111.290435,33.5449347 L111.290435,33.5449347 Z" id="Fill-340" sketch:type="MSShapeGroup"></path>
            <path d="M112.401304,33.8133563 L112.401304,34.8827274 L112.829565,34.9073255 L112.829565,35.3613119 L111.309565,35.3613119 L111.309565,34.9215665 L111.471739,34.9073255 C111.57,34.9021469 111.59,34.8633078 111.59,34.7459273 L111.59,33.4810659 C111.59,33.3839681 111.560435,33.3494444 111.476522,33.3395188 L111.304348,33.3252778 L111.304348,32.8656813 L112.332174,32.8656813 L112.332174,33.2419894 L112.342609,33.2419894 C112.42087,33.0611716 112.622609,32.797497 113.045652,32.797497 C113.183478,32.797497 113.365652,32.8173481 113.498261,32.8708599 L113.498261,33.8375229 L112.853913,33.8767936 L112.853913,33.5401877 C112.853913,33.4715719 112.84913,33.4521523 112.814348,33.4374798 C112.79,33.4275542 112.760435,33.4228072 112.711304,33.4228072 C112.514348,33.4228072 112.401304,33.5889524 112.401304,33.8133563" id="Fill-341" sketch:type="MSShapeGroup"></path>
            <path d="M115.879565,33.3347718 C115.702174,33.3347718 115.593913,33.4128816 115.593913,33.5401877 C115.593913,33.7153954 115.80087,33.7641601 116.046522,33.8375229 C116.39087,33.9354839 116.78913,34.0576114 116.78913,34.5651095 C116.78913,35.1071313 116.356522,35.4247492 115.687391,35.4247492 C115.407391,35.4247492 115.018261,35.3708059 114.782609,35.2586039 L114.782609,34.5849606 L115.333478,34.5456899 L115.333478,34.7312547 C115.333478,34.794692 115.343043,34.8339627 115.402609,34.8533822 C115.456522,34.8728018 115.544783,34.8879059 115.643478,34.8879059 C115.835217,34.8879059 115.958261,34.8236056 115.958261,34.6578919 C115.958261,34.4869997 115.766522,34.447729 115.510435,34.3899018 C115.166087,34.3014349 114.792609,34.1749919 114.792609,33.6424641 C114.792609,33.1004423 115.245217,32.797497 115.884348,32.797497 C116.145217,32.797497 116.45,32.8514403 116.70087,32.9735678 L116.70087,33.6277916 L116.15,33.6670623 L116.15,33.491423 C116.15,33.4180602 116.14,33.3839681 116.086087,33.3641169 C116.017391,33.3395188 115.953043,33.3347718 115.879565,33.3347718" id="Fill-342" sketch:type="MSShapeGroup"></path>
            <path d="M118.648261,33.8435646 C118.648261,33.6191606 118.59913,33.4922861 118.382609,33.4922861 C118.181304,33.4922861 118.058696,33.6532528 118.058696,33.8780883 L118.058696,34.9474593 L118.265217,34.9569533 L118.265217,35.4161182 L116.961304,35.4161182 L116.961304,34.9763729 L117.123913,34.9621318 C117.216957,34.9569533 117.241739,34.9228612 117.241739,34.8007336 L117.241739,32.5549682 C117.241739,32.4518287 117.212174,32.4229151 117.123913,32.4134211 L116.956522,32.3940015 L116.956522,31.934405 L118.043478,31.934405 L118.043478,33.2385371 C118.196522,32.9649369 118.451304,32.8523034 118.722174,32.8523034 C119.248696,32.8523034 119.470435,33.1457547 119.470435,33.6825979 L119.470435,34.9474593 L119.710435,34.9668788 L119.710435,35.4161182 L118.466522,35.4161182 L118.466522,34.9668788 L118.565217,34.9569533 C118.628696,34.9517747 118.648261,34.9228612 118.648261,34.8205847 L118.648261,33.8435646" id="Fill-343" sketch:type="MSShapeGroup"></path>
            <path d="M121.495652,33.4180602 C121.441304,33.3934621 121.357826,33.3792211 121.269565,33.3792211 C120.914783,33.3792211 120.821304,33.7546661 120.821304,34.1646348 C120.821304,34.5357644 120.89,34.8434567 121.185652,34.8434567 C121.386957,34.8434567 121.495652,34.7066566 121.495652,34.5556155 L121.495652,33.4180602 L121.495652,33.4180602 Z M122.307391,34.7657784 C122.307391,34.8680548 122.332174,34.9021469 122.420435,34.9073255 L122.548696,34.916388 L122.548696,35.3613119 L121.663043,35.3613119 L121.627826,35.1312979 L121.613478,35.1269824 C121.490435,35.3121157 121.269565,35.4247492 120.983478,35.4247492 C120.236087,35.4247492 120,34.8728018 120,34.2237566 C120,33.3641169 120.447826,32.797497 121.357826,32.797497 C121.534783,32.797497 121.913478,32.8320207 122.307391,32.9834934 L122.307391,34.7657784 L122.307391,34.7657784 Z" id="Fill-344" sketch:type="MSShapeGroup"></path>
            <path d="M123.705652,33.8133563 L123.705652,34.8827274 L124.133913,34.9073255 L124.133913,35.3613119 L122.613478,35.3613119 L122.613478,34.9215665 L122.776087,34.9073255 C122.874348,34.9021469 122.894783,34.8633078 122.894783,34.7459273 L122.894783,33.4810659 C122.894783,33.3839681 122.865217,33.3494444 122.78087,33.3395188 L122.608696,33.3252778 L122.608696,32.8656813 L123.636957,32.8656813 L123.636957,33.2419894 L123.646957,33.2419894 C123.725217,33.0611716 123.927391,32.797497 124.350435,32.797497 C124.487826,32.797497 124.670435,32.8173481 124.803043,32.8708599 L124.803043,33.8375229 L124.158261,33.8767936 L124.158261,33.5401877 C124.158261,33.4715719 124.153913,33.4521523 124.11913,33.4374798 C124.094783,33.4275542 124.064783,33.4228072 124.015652,33.4228072 C123.818696,33.4228072 123.705652,33.5889524 123.705652,33.8133563" id="Fill-345" sketch:type="MSShapeGroup"></path>
            <path d="M126.026522,33.3792211 C125.77087,33.3792211 125.603478,33.608372 125.58913,33.9255583 C126.031739,33.9406624 126.238696,33.8232819 126.238696,33.5889524 C126.238696,33.4374798 126.149565,33.3792211 126.026522,33.3792211 L126.026522,33.3792211 Z M126.942174,33.5449347 C126.942174,34.2379976 126.341739,34.4140684 125.599565,34.4041428 C125.623913,34.6332938 125.77087,34.8192901 126.09087,34.8192901 C126.341739,34.8192901 126.558261,34.7265077 126.715217,34.6242313 L126.931739,35.1658216 C126.906957,35.1904197 126.533478,35.4247492 125.977391,35.4247492 C125.116957,35.4247492 124.782609,34.8926529 124.782609,34.1698134 C124.782609,33.4374798 125.22,32.797497 126.071739,32.797497 C126.587826,32.797497 126.942174,33.0322581 126.942174,33.5449347 L126.942174,33.5449347 Z" id="Fill-346" sketch:type="MSShapeGroup"></path>
            <path d="M128.881739,34.6250944 L128.881739,33.4823606 C128.823043,33.453447 128.73913,33.4340274 128.65087,33.4340274 C128.311304,33.4340274 128.208261,33.7947999 128.208261,34.194843 C128.208261,34.5905707 128.296522,34.898263 128.586957,34.898263 C128.803478,34.898263 128.881739,34.7614629 128.881739,34.6250944 L128.881739,34.6250944 Z M129.802174,34.9569533 L129.934783,34.9711943 L129.934783,35.4161182 L129.04913,35.4161182 L129.015217,35.1912828 L128.995652,35.1861042 C128.856957,35.3915201 128.62087,35.4795555 128.365652,35.4795555 C127.607826,35.4795555 127.391304,34.90301 127.391304,34.2682058 C127.391304,33.4922861 127.794783,32.8523034 128.543043,32.8523034 C128.65087,32.8523034 128.763913,32.8674075 128.881739,32.9010681 L128.881739,32.5497896 C128.881739,32.4570072 128.842609,32.4181681 128.763913,32.4082425 L128.601739,32.3940015 L128.601739,31.934405 L129.693478,31.934405 L129.693478,34.8154062 C129.693478,34.9228612 129.713043,34.9474593 129.802174,34.9569533 L129.802174,34.9569533 Z" id="Fill-347" sketch:type="MSShapeGroup"></path>
        </g>
    </g>
</svg>