<?xml version="1.0" encoding="UTF-8"?>
<svg width="35px" height="35px" viewBox="0 0 35 35" version="1.1" xmlns="http://www.w3.org/2000/svg" xmlns:xlink="http://www.w3.org/1999/xlink">
    <!-- Generator: Sketch 45.2 (43514) - http://www.bohemiancoding.com/sketch -->
    <title>Page 1</title>
    <desc>Created with Sketch.</desc>
    <defs></defs>
    <g id="Page-1" stroke="none" stroke-width="1" fill="none" fill-rule="evenodd">
        <g id="Desktop-HD-Copy-6" transform="translate(-747.000000, -258.000000)" fill="#073553">
            <g id="header" transform="translate(271.000000, 49.000000)">
                <g id="social-share" transform="translate(392.000000, 208.000000)">
                    <path d="M101.5,1 C99.0812872,1 96.810815,1.45646829 94.6885151,2.36941398 C92.5662153,3.28235967 90.71664,4.52726244 89.1397346,6.1041678 C87.5628311,7.68107317 86.3119964,9.53064846 85.3871951,11.6529483 C84.4623938,13.7752481 84,16.0457203 84,18.4644332 C84,20.883146 84.4623938,23.1536182 85.3871951,25.275918 C86.3119964,27.3982179 87.5628311,29.2477932 89.1397346,30.8246985 C90.71664,32.4016021 92.5662153,33.6524367 94.6885151,34.577238 C96.810815,35.5020393 99.0812872,35.9644332 101.5,35.9644332 C103.918713,35.9644332 106.189185,35.5020393 108.311485,34.577238 C110.433785,33.6524367 112.28336,32.4016021 113.860265,30.8246985 C115.437171,29.2477932 116.688001,27.3982179 117.612803,25.275918 C118.537608,23.1536182 119,20.883146 119,18.4644332 C119,16.0457203 118.537608,13.7752481 117.612803,11.6529483 C116.688001,9.53064846 115.437171,7.68107317 113.860265,6.1041678 C112.28336,4.52726244 110.433785,3.28235967 108.311485,2.36941398 C106.189185,1.45646829 103.918713,1 101.5,1 Z M102.70935,22.6260163 C102.140239,22.5785938 101.695631,22.4363174 101.375507,22.199187 C101.055383,21.9620611 100.670057,21.7130797 100.219512,21.452238 C99.9823818,22.7090192 99.6741223,23.9005717 99.2947154,25.026932 C98.9153086,26.1532924 98.2869294,27.0365854 97.4095506,27.6768338 C97.1249977,25.7560885 97.2079915,24.0310062 97.6585366,22.5015278 C98.1090816,20.9720494 98.500335,19.4485216 98.8323148,17.9308943 C98.2869203,17.0298088 98.2632091,15.9449613 98.7611811,14.6763246 C99.2591486,13.4076878 100.065376,12.9986465 101.17988,13.4491915 C101.84384,13.7100286 102.116533,14.2079915 101.997967,14.9430894 C101.879402,15.6781919 101.695631,16.4429197 101.446645,17.2373002 C101.197659,18.0316807 101.04946,18.7726972 101.002033,19.4603681 C100.954606,20.148039 101.357719,20.5748637 102.211382,20.7408559 C103.112472,20.9068481 103.871272,20.6697223 104.487805,20.0294738 C105.104338,19.3892254 105.54895,18.5889307 105.821647,17.628558 C106.094345,16.6681899 106.171411,15.6781919 106.052846,14.6585366 C105.93428,13.6388859 105.602305,12.844519 105.056911,12.2754088 C104.250674,11.4691727 103.314031,11.0304924 102.246949,10.9593496 C101.179871,10.8882114 100.189878,11.0956982 99.276932,11.5818101 C98.3639863,12.0679265 97.617042,12.7792995 97.0360761,13.7159564 C96.4551102,14.6526133 96.2594836,15.701894 96.449187,16.8638257 C96.5440364,17.4329314 96.7574511,17.8893997 97.0894309,18.2332351 C97.4214107,18.5770706 97.3739837,19.1402439 96.9471545,19.9227642 C95.903788,19.6856384 95.1983428,19.1876754 94.8307915,18.4288663 C94.4632449,17.6700527 94.303185,16.7571207 94.350612,15.6900429 C94.4217502,13.9115785 95.0975564,12.4473333 96.3780488,11.2972572 C97.6585411,10.1471857 99.0575805,9.48916293 100.575203,9.32317528 C102.519655,9.1097561 104.274381,9.44765919 105.839431,10.3368937 C107.404481,11.2261236 108.317413,12.5718081 108.578254,14.3739837 C108.720531,15.4173502 108.684959,16.4429151 108.471545,17.4507148 C108.25813,18.4585099 107.896511,19.3595863 107.386688,20.1539668 C106.87686,20.9483473 106.224766,21.5767265 105.430385,22.0391272 C104.636005,22.5015278 103.729,22.697159 102.70935,22.6260163 Z" id="Page-1"></path>
                </g>
            </g>
        </g>
    </g>
</svg>